<?xml version="1.0" standalone="no"?>
<!DOCTYPE svg PUBLIC "-//W3C//DTD SVG 20010904//EN"
 "http://www.w3.org/TR/2001/REC-SVG-20010904/DTD/svg10.dtd">
<svg version="1.0" xmlns="http://www.w3.org/2000/svg"
 width="606.000000pt" height="601.000000pt" viewBox="0 0 606.000000 601.000000"
 preserveAspectRatio="xMidYMid meet">

<g transform="translate(0.000000,601.000000) scale(0.100000,-0.100000)"
fill="#000000" stroke="none">
<path d="M5915 5994 c-260 -36 -335 -47 -400 -60 -38 -8 -106 -21 -150 -30
-207 -41 -375 -85 -590 -155 -220 -71 -310 -106 -308 -117 1 -5 -7 -8 -17 -5
-25 7 -26 -12 -2 -26 16 -10 16 -12 -3 -27 -20 -16 -20 -16 3 -11 19 4 21 3
11 -9 -6 -8 -18 -14 -26 -14 -8 0 -11 -5 -8 -10 4 -6 16 -8 28 -4 19 6 20 5 5
-10 -9 -9 -31 -16 -48 -16 -17 0 -29 -4 -26 -9 6 -10 -18 -23 -46 -26 -10 -1
-18 1 -18 5 0 4 -18 5 -41 3 -39 -4 -40 -3 -37 24 2 18 8 27 17 25 8 -2 27 2
43 9 22 9 32 9 41 0 6 -6 16 -11 21 -11 6 0 4 5 -4 10 -12 7 -12 10 -1 10 7 0
11 6 7 15 -3 10 1 15 12 15 21 1 54 25 45 33 -10 10 -35 8 -29 -2 3 -5 -10
-12 -30 -15 -19 -4 -44 -16 -55 -27 -10 -10 -19 -15 -19 -9 0 10 -34 0 -77
-22 -21 -10 -21 -12 -5 -24 9 -7 14 -16 9 -20 -4 -4 -13 -2 -19 4 -15 15 -55
16 -63 2 -4 -6 8 -10 29 -10 19 0 37 -4 41 -10 3 -5 12 -7 20 -3 11 4 15 -2
15 -21 0 -26 -1 -26 -22 -12 -30 21 -55 22 -34 1 8 -8 20 -15 26 -15 7 0 9 -7
6 -16 -3 -9 -6 -18 -6 -20 0 -2 -13 -4 -28 -4 -16 0 -37 -9 -47 -20 -10 -11
-24 -20 -31 -20 -7 0 -15 -8 -19 -19 -4 -12 -19 -21 -45 -25 -22 -3 -40 -11
-40 -16 0 -6 -6 -10 -13 -10 -8 0 -19 -10 -24 -23 -10 -21 -30 -26 -75 -18
-12 2 -9 46 4 59 9 9 7 12 -9 12 -36 0 -44 -49 -13 -80 25 -25 25 -40 1 -40
-11 0 -22 -4 -26 -10 -3 -5 -12 -7 -20 -4 -8 4 -18 -1 -21 -10 -3 -9 -14 -15
-23 -14 -11 2 -15 -3 -13 -17 2 -17 1 -18 -8 -5 -8 10 -13 11 -16 4 -3 -6 -15
-9 -28 -7 -27 5 -56 -20 -56 -47 0 -11 -9 -24 -20 -30 -25 -14 -63 8 -56 32 2
11 -3 20 -14 23 -33 11 -29 32 11 65 29 23 43 29 52 21 7 -5 23 -8 35 -4 21 5
22 7 7 23 -11 12 -13 20 -6 25 6 3 11 4 11 0 0 -3 14 2 30 10 17 9 28 20 25
26 -4 5 -27 -2 -55 -17 -27 -15 -47 -31 -43 -37 3 -6 1 -7 -5 -4 -13 9 -92
-42 -92 -60 0 -7 -8 -13 -17 -13 -10 0 -29 -9 -43 -20 l-25 -20 41 6 c38 6 42
4 48 -20 3 -14 13 -26 20 -26 8 0 16 -10 20 -22 9 -35 7 -41 -9 -34 -9 3 -15
0 -15 -8 0 -20 -23 -26 -43 -11 -14 10 -15 14 -5 18 10 3 9 9 -5 23 -17 18
-18 17 -14 -42 l5 -62 -32 9 c-41 12 -76 11 -76 -1 0 -5 6 -10 14 -10 7 0 18
-6 24 -13 18 -21 -14 -60 -41 -52 -18 5 -19 4 -7 -4 13 -10 13 -12 0 -21 -8
-5 -20 -10 -27 -10 -6 0 -30 -18 -52 -40 -22 -22 -46 -39 -53 -38 -7 2 -12 -4
-11 -12 2 -9 -12 -24 -32 -34 -19 -11 -35 -25 -35 -33 0 -7 -7 -13 -15 -13 -9
0 -19 -9 -23 -21 -5 -11 -12 -20 -17 -20 -6 0 -9 -7 -7 -14 2 -10 -3 -13 -13
-9 -18 7 -94 -71 -95 -98 0 -18 -58 -58 -85 -58 -14 0 -15 3 -5 15 9 11 9 15
1 15 -7 0 -24 11 -38 25 -29 26 -45 27 -22 1 30 -33 38 -44 40 -57 5 -24 -12
-79 -23 -79 -18 0 -98 -91 -98 -111 0 -14 -7 -19 -29 -19 -20 0 -32 -6 -36
-19 -3 -11 -19 -34 -35 -53 -16 -18 -30 -39 -30 -45 0 -7 -5 -13 -11 -13 -5 0
-17 -16 -25 -35 -16 -40 -36 -45 -57 -15 -13 18 -15 19 -21 5 -4 -13 -10 -14
-26 -5 -24 13 -26 48 -3 65 11 8 13 14 5 19 -6 4 -19 -3 -29 -15 -32 -39 -85
-94 -77 -80 6 12 -4 13 -62 7 -160 -16 -318 -91 -460 -217 -145 -129 -407
-402 -604 -629 -36 -41 -71 -82 -79 -90 -52 -54 -481 -573 -481 -581 0 -5 258
17 380 31 47 6 126 15 175 20 136 13 330 38 362 46 15 4 31 12 35 18 5 7 8 3
8 -8 0 -11 10 -30 22 -43 l21 -23 -64 -68 c-60 -62 -68 -68 -127 -80 -68 -13
-170 -58 -241 -106 -138 -91 -329 -279 -447 -438 -93 -124 -138 -197 -246
-393 -36 -66 -138 -272 -138 -280 0 -2 -20 -45 -44 -97 -40 -85 -83 -188 -123
-293 -8 -22 -23 -60 -34 -85 -46 -114 -178 -503 -223 -657 -18 -63 -20 -63 91
-29 43 13 148 45 233 70 257 78 300 92 430 139 779 280 1221 543 1486 882 113
146 184 298 184 395 0 17 5 30 11 30 6 0 36 25 68 55 32 30 62 55 68 55 5 0
22 -13 37 -28 25 -27 26 -32 17 -73 -5 -24 -13 -78 -16 -119 -4 -41 -11 -100
-16 -130 -5 -30 -13 -102 -18 -160 -6 -58 -14 -145 -20 -195 -5 -49 -12 -134
-15 -188 l-6 -98 38 31 c20 18 78 65 127 106 462 377 799 682 1076 971 115
120 146 163 195 262 47 96 70 172 79 254 l7 67 87 69 c374 295 712 620 895
860 235 308 436 656 573 991 123 300 240 673 297 945 10 44 22 97 27 118 12
47 35 178 54 312 27 194 45 330 45 348 0 20 -5 20 -145 1z m-1440 -1189 c135
-35 268 -140 332 -261 87 -164 84 -367 -8 -520 -67 -111 -202 -208 -330 -235
-89 -19 -223 -6 -310 30 -140 58 -257 181 -305 321 -29 85 -27 263 5 350 57
154 210 289 362 319 72 14 191 12 254 -4z m-1998 -780 c12 -8 29 -29 37 -46
13 -27 13 -33 1 -45 -7 -8 -18 -14 -24 -14 -5 0 -18 -13 -27 -29 -14 -24 -21
-28 -36 -20 -10 5 -18 19 -18 29 0 24 -15 26 -24 4 -3 -9 4 -24 19 -38 29 -27
31 -36 10 -36 -8 0 -15 4 -15 10 0 5 -13 8 -30 7 -33 -2 -39 -14 -12 -24 22
-9 42 -29 42 -42 0 -6 -7 -8 -15 -5 -9 4 -15 0 -15 -9 0 -8 -8 -25 -19 -38
-15 -19 -21 -21 -34 -11 -8 7 -13 20 -11 30 2 9 -1 24 -7 32 -9 13 -11 13 -16
0 -4 -8 -20 -28 -36 -45 -28 -28 -31 -29 -37 -10 -4 11 -5 24 -2 30 3 5 7 4
10 -3 2 -8 13 -3 28 14 18 18 22 29 15 38 -8 9 -7 13 4 13 8 0 11 -5 8 -10 -3
-6 -1 -7 5 -3 7 4 12 14 12 22 0 8 5 14 10 14 29 0 70 73 49 86 -5 3 -9 1 -9
-4 0 -6 -7 -12 -15 -16 -12 -4 -12 -1 2 21 9 14 19 21 21 14 5 -15 32 -14 32
1 0 12 61 97 70 98 3 0 15 -7 27 -15z m63 -41 c0 -8 -5 -12 -10 -9 -6 4 -8 11
-5 16 9 14 15 11 15 -7z m-225 -104 c4 -6 2 -9 -4 -8 -5 2 -17 -6 -26 -17 -17
-20 -10 0 8 23 12 15 14 15 22 2z m-9 -170 c16 0 19 -16 4 -25 -6 -4 -7 -11
-4 -17 9 -14 -15 -28 -49 -28 -22 0 -28 -4 -24 -17 2 -10 -8 -33 -21 -52 -14
-18 -30 -52 -37 -74 -6 -23 -18 -43 -25 -45 -8 -3 -10 0 -6 9 4 8 1 6 -7 -4
-15 -18 -16 -18 -31 5 -14 22 -14 28 4 78 21 57 58 95 102 104 19 4 28 13 33
36 4 16 10 30 15 30 4 0 11 10 15 23 l8 22 4 -22 c2 -13 11 -23 19 -23z m-103
-39 c-3 -12 -13 -21 -25 -21 -11 0 -29 -10 -39 -22 l-20 -23 12 25 c7 14 24
42 38 63 22 35 26 37 32 19 4 -11 5 -29 2 -41z m-96 -106 c-4 -8 -11 -15 -17
-15 -6 0 -6 7 2 20 14 22 24 19 15 -5z m-27 -32 c0 -5 -10 -19 -21 -33 l-21
-25 18 33 c18 32 24 38 24 25z m-3 -79 c19 8 33 -9 33 -42 0 -31 -74 -130 -79
-105 -2 9 -11 23 -20 30 -13 9 -14 14 -3 24 6 7 12 22 12 34 0 15 2 17 9 6 6
-9 10 -4 13 18 3 23 1 31 -8 27 -8 -3 -11 0 -7 10 4 11 9 12 19 3 8 -6 21 -8
31 -5z m-86 -77 c-10 -9 -11 -8 -5 6 3 10 9 15 12 12 3 -3 0 -11 -7 -18z m-14
-41 c-4 -10 -1 -13 9 -9 9 3 14 -2 14 -15 0 -11 7 -22 15 -26 21 -8 19 -23 -5
-43 -11 -10 -20 -23 -20 -31 0 -7 -4 -11 -8 -8 -5 3 -18 -15 -30 -39 -12 -25
-26 -45 -31 -45 -5 0 -12 -17 -16 -37 -8 -46 -22 -73 -36 -73 -14 0 -3 67 17
97 8 12 14 31 14 43 0 11 5 20 10 20 6 0 10 8 10 17 0 9 7 24 15 33 16 18 10
54 -7 44 -6 -4 -5 3 1 15 7 11 14 21 17 21 3 0 2 -5 -1 -11 -8 -12 23 -38 45
-38 13 0 13 1 -1 12 -9 7 -15 20 -13 30 1 10 -4 21 -12 24 -11 4 -12 9 -3 19
15 18 23 18 16 0z m-79 -136 c-5 -17 -14 -33 -19 -36 -8 -5 4 37 17 57 11 19
12 8 2 -21z m-48 -106 c-6 -14 -8 -30 -4 -35 3 -5 -2 -9 -10 -9 -13 0 -14 5
-5 26 11 31 19 44 24 44 3 0 0 -12 -5 -26z m-30 -88 c-14 -14 -22 -2 -14 18 5
14 9 15 15 4 4 -7 4 -17 -1 -22z m20 -16 c0 -5 -4 -10 -9 -10 -5 0 -12 -11
-15 -25 -4 -14 -11 -25 -17 -25 -8 0 -8 4 0 14 7 9 8 17 2 20 -5 3 -12 1 -14
-4 -4 -7 -5 -6 -3 0 1 7 5 10 9 8 5 -2 13 5 18 15 11 18 29 23 29 7z m-79 -97
c-12 -20 -14 -14 -5 12 4 9 9 14 11 11 3 -2 0 -13 -6 -23z m34 -5 c-3 -30 -3
-30 -15 -23 -7 4 -7 13 0 26 14 25 18 24 15 -3z m-47 -51 c1 -23 -3 -34 -13
-34 -8 0 -15 1 -15 2 0 6 22 65 24 65 2 0 3 -15 4 -33z m-18 -98 c0 -10 -7
-19 -15 -19 -8 0 -19 -17 -25 -41 -6 -23 -13 -39 -16 -36 -3 2 3 32 13 65 12
40 22 58 30 55 7 -3 13 -14 13 -24z m83 -635 c40 -37 78 -77 86 -89 15 -25 19
-19 -174 -280 -61 -82 -122 -166 -135 -185 l-25 -35 25 16 c14 9 103 74 198
145 201 150 237 174 261 174 9 0 39 -22 66 -50 46 -46 49 -53 53 -110 7 -94
-47 -220 -140 -330 -71 -82 -199 -206 -268 -259 -170 -128 -428 -276 -700
-400 -222 -102 -617 -257 -628 -246 -6 5 -2 13 106 270 127 301 304 645 438
850 80 124 185 253 280 347 191 187 323 264 437 253 44 -4 56 -11 120 -71z"/>
<path d="M2427 3970 c-4 -17 -1 -21 16 -18 25 3 30 31 6 36 -10 2 -19 -6 -22
-18z"/>
<path d="M2150 3554 c0 -12 -7 -27 -15 -34 -17 -14 -20 -40 -5 -40 6 0 13 8
16 18 3 9 9 24 14 33 4 9 4 22 -1 30 -7 11 -9 9 -9 -7z"/>
<path d="M4074 5455 c-4 -9 -13 -13 -24 -10 -10 3 -24 -3 -36 -16 -19 -22 -19
-22 6 -14 40 12 73 8 86 -10 9 -12 14 -13 19 -4 4 6 1 15 -6 20 -12 8 -12 11
1 20 12 8 10 9 -9 4 -19 -6 -23 -4 -18 9 4 9 2 16 -4 16 -5 0 -12 -7 -15 -15z"/>
<path d="M3972 5408 c-14 -14 -16 -28 -3 -28 9 0 24 30 18 36 -2 2 -9 -2 -15
-8z"/>
<path d="M3854 5346 c-69 -34 -110 -66 -85 -66 7 0 19 7 28 16 9 8 22 13 29
10 8 -3 14 1 14 8 0 25 59 28 92 5 39 -28 48 -17 12 16 l-29 26 28 -6 c21 -4
28 -2 25 7 -8 23 -42 18 -114 -16z"/>
<path d="M3710 5205 c0 -8 5 -15 10 -15 6 0 10 7 10 15 0 8 -4 15 -10 15 -5 0
-10 -7 -10 -15z"/>
<path d="M3730 5154 c0 -14 3 -14 15 -4 8 7 15 14 15 16 0 2 -7 4 -15 4 -8 0
-15 -7 -15 -16z"/>
<path d="M3590 5120 c0 -11 5 -20 10 -20 6 0 10 9 10 20 0 11 -4 20 -10 20 -5
0 -10 -9 -10 -20z"/>
<path d="M3426 5063 c-3 -3 -3 -10 0 -14 7 -12 44 -12 44 0 0 10 -36 21 -44
14z"/>
<path d="M3485 5060 c-8 -13 20 -24 36 -15 8 6 7 10 -2 16 -18 11 -26 11 -34
-1z"/>
<path d="M3350 5011 c0 -5 -10 -12 -22 -15 l-23 -7 23 -16 c12 -8 22 -22 22
-29 0 -8 5 -14 10 -14 16 0 12 22 -7 35 -20 15 -9 35 20 35 18 0 19 2 7 10
-19 12 -30 13 -30 1z"/>
<path d="M3268 4943 c-16 -8 -28 -19 -28 -24 0 -6 6 -7 16 -1 9 5 25 7 34 5
19 -5 35 23 17 29 -7 3 -24 -2 -39 -9z"/>
<path d="M3372 4880 c0 -14 2 -19 5 -12 2 6 2 18 0 25 -3 6 -5 1 -5 -13z"/>
<path d="M3162 4856 c-16 -17 -40 -39 -53 -48 l-24 -17 32 2 c17 1 29 5 26 10
-7 12 26 20 40 9 10 -8 20 -5 40 12 34 30 34 39 -2 53 -27 10 -32 8 -59 -21z
m63 4 c7 -11 -18 -40 -34 -40 -15 0 -14 23 1 38 15 15 25 15 33 2z"/>
<path d="M3240 4810 c0 -6 7 -10 15 -10 8 0 15 2 15 4 0 2 -7 6 -15 10 -8 3
-15 1 -15 -4z"/>
<path d="M3057 4762 c-10 -10 -17 -24 -17 -30 0 -7 -5 -12 -10 -12 -6 0 -22
-11 -36 -25 -32 -32 -13 -33 24 -1 15 14 37 33 50 44 22 19 30 42 14 42 -5 0
-16 -8 -25 -18z"/>
<path d="M3072 4719 c-18 -16 -28 -29 -23 -29 14 0 67 47 61 53 -3 3 -20 -8
-38 -24z"/>
<path d="M3107 4704 c-8 -8 1 -24 14 -24 5 0 9 7 9 15 0 15 -12 20 -23 9z"/>
<path d="M2902 4605 c-30 -30 -47 -55 -40 -55 8 0 27 12 41 28 15 15 36 36 47
46 20 20 26 36 13 36 -5 0 -32 -25 -61 -55z"/>
<path d="M2956 4605 c-11 -8 -16 -18 -12 -22 3 -4 16 3 29 15 24 25 12 29 -17
7z"/>
<path d="M2987 4584 c-8 -8 1 -24 14 -24 5 0 9 7 9 15 0 15 -12 20 -23 9z"/>
<path d="M2824 4518 c-10 -13 -19 -30 -19 -38 0 -8 -8 -14 -17 -14 -10 1 -14
-4 -11 -12 3 -8 16 -14 30 -14 22 0 25 4 21 28 -5 32 10 51 32 44 13 -5 13 -3
1 11 -17 21 -14 21 -37 -5z"/>
<path d="M2750 4439 c0 -6 -16 -26 -35 -43 -19 -18 -32 -36 -28 -39 3 -4 12 2
20 13 17 23 43 27 43 5 0 -8 5 -15 10 -15 14 0 12 37 -2 43 -10 4 -10 6 0 6
14 1 17 41 2 41 -5 0 -10 -5 -10 -11z"/>
<path d="M2705 4341 c-11 -10 -4 -21 14 -21 10 0 21 6 24 14 4 10 -1 14 -14
13 -11 -1 -22 -3 -24 -6z"/>
<path d="M2770 4315 c0 -8 5 -15 10 -15 6 0 10 7 10 15 0 8 -4 15 -10 15 -5 0
-10 -7 -10 -15z"/>
<path d="M2630 4286 c0 -9 5 -16 10 -16 6 0 10 4 10 9 0 6 -4 13 -10 16 -5 3
-10 -1 -10 -9z"/>
<path d="M2583 4243 c-15 -21 -32 -41 -38 -45 -5 -4 -6 -10 -2 -14 4 -4 14 1
22 12 8 10 15 15 15 11 0 -10 50 43 50 54 0 23 -22 15 -47 -18z"/>
<path d="M2630 4212 c0 -5 7 -13 16 -16 10 -4 14 -1 12 6 -5 15 -28 23 -28 10z"/>
<path d="M2506 4151 c-17 -18 -17 -20 1 -29 15 -9 18 -6 19 19 1 34 2 34 -20
10z"/>
<path d="M2510 4080 c0 -5 5 -10 10 -10 6 0 10 5 10 10 0 6 -4 10 -10 10 -5 0
-10 -4 -10 -10z"/>
</g>
</svg>
